<?xml version="1.0" standalone="no"?><svg xmlns="http://www.w3.org/2000/svg" viewBox="0 0 1440 320"><path fill="#bfd7ea" fill-opacity="0.3" d="M0,288L20,261.3C40,235,80,181,120,176C160,171,200,213,240,224C280,235,320,213,360,218.7C400,224,440,256,480,266.7C520,277,560,267,600,229.3C640,192,680,128,720,128C760,128,800,192,840,202.7C880,213,920,171,960,144C1000,117,1040,107,1080,112C1120,117,1160,139,1200,176C1240,213,1280,267,1320,288C1360,309,1400,299,1420,293.3L1440,288L1440,0L1420,0C1400,0,1360,0,1320,0C1280,0,1240,0,1200,0C1160,0,1120,0,1080,0C1040,0,1000,0,960,0C920,0,880,0,840,0C800,0,760,0,720,0C680,0,640,0,600,0C560,0,520,0,480,0C440,0,400,0,360,0C320,0,280,0,240,0C200,0,160,0,120,0C80,0,40,0,20,0L0,0Z"></path></svg>